// public/images/hero-illustration.svg
<svg width="500" height="400" viewBox="0 0 500 400" xmlns="http://www.w3.org/2000/svg">
  <style>
    .st0{fill:#3a86ff;}
    .st1{fill:#2667cc;}
    .st2{fill:#ffffff;}
    .st3{fill:#f8f9fa;}
    .st4{fill:#e0e0e0;}
  </style>
  <rect x="50" y="50" width="400" height="300" rx="10" class="st3" />
  <rect x="70" y="80" width="360" height="40" rx="5" class="st4" />
  <rect x="70" y="140" width="160" height="180" rx="5" class="st4" />
  <rect x="250" y="140" width="180" height="80" rx="5" class="st4" />
  <rect x="250" y="240" width="180" height="80" rx="5" class="st4" />
  <circle cx="400" cy="70" r="15" class="st0" />
  <path d="M250,20 L270,60 L230,60 Z" class="st1" />
  <rect x="85" y="95" width="100" height="10" rx="2" class="st2" />
  <rect x="85" y="155" width="130" height="10" rx="2" class="st2" />
  <rect x="85" y="175" width="100" height="10" rx="2" class="st2" />
  <rect x="85" y="195" width="120" height="10" rx="2" class="st2" />
  <rect x="85" y="215" width="90" height="10" rx="2" class="st2" />
  <rect x="265" y="155" width="150" height="10" rx="2" class="st2" />
  <rect x="265" y="175" width="120" height="10" rx="2" class="st2" />
  <rect x="265" y="195" width="140" height="10" rx="2" class="st2" />
  <rect x="265" y="255" width="150" height="10" rx="2" class="st2" />
  <rect x="265" y="275" width="120" height="10" rx="2" class="st2" />
  <rect x="265" y="295" width="140" height="10" rx="2" class="st2" />
  <circle cx="150" cy="350" r="30" class="st0" />
  <rect x="300" y="330" width="80" height="30" rx="15" class="st1" />
</svg>
